<svg width="345" height="213" viewBox="0 0 345 213" xmlns="http://www.w3.org/2000/svg" xmlns:xlink="http://www.w3.org/1999/xlink"><defs><path id="a" d="M.026.675v41.253h60.456V.675H.026z"/></defs><g fill="none" fill-rule="evenodd"><path fill="#000" d="M50.512 171.085l-8.203 23.728-7.257-23.728H25.43l-7.317 23.728-8.14-23.728H.022v.075l14.375 41.181h6.844l8.968-28.685 9.032 28.685h6.84l14.402-41.256zM65.38 212.34h9.205v-41.253H65.38z"/><g transform="translate(0 170.41)"><mask id="b" fill="#fff"><use xlink:href="#a"/></mask><path fill="#000" mask="url(#b)" d="M18.114 24.4L25.431.675h9.62L42.308 24.4 50.51.675h9.971L46.083 41.928h-6.845l-9.027-28.682-8.97 28.682h-6.845L0 .675h9.97z"/></g><path fill="#000" d="M65.38 212.34h9.205v-41.253H65.38zm19.356-41.255h9.204v16.94l15.58-16.94h11.388l-16.404 18.238a2729.82 2729.82 0 0 1 7.848 11.006c3.815 5.37 6.668 9.374 8.556 12.01h-10.74l-12.097-16.29-4.13 4.606v11.684h-9.205v-41.254zm41.894 41.255h9.204v-41.253h-9.205zm56.295-25.968l-11.153 22.546h-5.488l-11.093-22.546v25.968h-9.205v-41.254h12.451l10.62 22.664 10.682-22.664h12.39v41.254h-9.204zm49.095-15.287v8.205h-20.535v8.497h18.47v7.85h-18.47v8.557h21.184v8.145h-30.391v-41.254zm33.606 29.923c2.261-2.126 3.392-5.212 3.392-9.267 0-4.052-1.13-7.17-3.392-9.354-2.264-2.183-5.736-3.276-10.415-3.276h-5.134v25.084h5.84c4.21 0 7.445-1.062 9.709-3.187m6.756-24.523c3.934 3.601 5.901 8.61 5.901 15.022 0 6.412-1.917 11.487-5.752 15.225-3.836 3.738-9.69 5.607-17.557 5.607h-14.102v-41.253h14.574c7.358 0 13.002 1.8 16.936 5.399m13.865 35.855h9.205v-41.253h-9.205zm36.291-28.979l-5.191 11.981h10.326l-5.135-11.98zm12.451 28.978l-3.835-8.912h-17.291l-3.836 8.912h-9.794l17.82-41.254h8.91l17.82 41.254h-9.794z"/><path d="M178.753 119.777c22.078-3.12 39.062-22.093 39.062-45.035 0-13.939-6.27-26.41-16.14-34.755l-22.922 22.925v56.865zm-12.84 0V62.912l-22.92-22.925c-9.872 8.344-16.142 20.816-16.142 34.755 0 22.942 16.985 41.915 39.062 45.035" fill="#FEFEFE"/><path d="M211.859 35.21c10.558 10.56 16.37 24.6 16.37 39.533 0 14.934-5.812 28.97-16.37 39.531-10.559 10.56-24.596 16.376-39.524 16.376-14.931 0-28.97-5.816-39.527-16.376-10.558-10.56-16.373-24.6-16.373-39.53 0-14.934 5.815-28.973 16.373-39.533a57.34 57.34 0 0 1 2.796-2.612l-12.77-12.772a73.61 73.61 0 0 0-2.772 2.636 73.648 73.648 0 0 0-15.838 23.497c-3.858 9.122-5.815 18.806-5.815 28.783 0 9.976 1.957 19.66 5.815 28.782a73.622 73.622 0 0 0 15.838 23.497 73.608 73.608 0 0 0 23.494 15.841c9.118 3.858 18.802 5.816 28.779 5.816 9.974 0 19.655-1.958 28.776-5.816a73.608 73.608 0 0 0 23.494-15.841 73.622 73.622 0 0 0 15.838-23.497c3.858-9.123 5.815-18.806 5.815-28.782 0-9.977-1.957-19.66-5.815-28.783a73.648 73.648 0 0 0-15.838-23.497 73.61 73.61 0 0 0-2.772-2.636l-12.77 12.772a57.34 57.34 0 0 1 2.796 2.612" fill="#FEFEFE"/><path d="M172.333.397c12.725 0 23.039 10.316 23.039 23.042 0 12.727-10.314 23.045-23.039 23.045-12.724 0-23.04-10.318-23.04-23.045 0-12.726 10.316-23.042 23.04-23.042" fill="#FEFEFE"/><path d="M178.753 119.777c22.078-3.12 39.062-22.093 39.062-45.035 0-13.939-6.27-26.41-16.14-34.755l-22.922 22.925v56.865zm-12.84 0V62.912l-22.92-22.925c-9.872 8.344-16.142 20.816-16.142 34.755 0 22.942 16.985 41.915 39.062 45.035" fill="#000"/><path d="M211.859 35.21c10.558 10.56 16.37 24.6 16.37 39.533 0 14.934-5.812 28.97-16.37 39.531-10.559 10.56-24.596 16.376-39.524 16.376-14.931 0-28.97-5.816-39.527-16.376-10.558-10.56-16.373-24.6-16.373-39.53 0-14.934 5.815-28.973 16.373-39.533a57.34 57.34 0 0 1 2.796-2.612l-12.77-12.772a73.61 73.61 0 0 0-2.772 2.636 73.648 73.648 0 0 0-15.838 23.497c-3.858 9.122-5.815 18.806-5.815 28.783 0 9.976 1.957 19.66 5.815 28.782a73.622 73.622 0 0 0 15.838 23.497 73.608 73.608 0 0 0 23.494 15.841c9.118 3.858 18.802 5.816 28.779 5.816 9.974 0 19.655-1.958 28.776-5.816a73.608 73.608 0 0 0 23.494-15.841 73.622 73.622 0 0 0 15.838-23.497c3.858-9.123 5.815-18.806 5.815-28.782 0-9.977-1.957-19.66-5.815-28.783a73.648 73.648 0 0 0-15.838-23.497 73.61 73.61 0 0 0-2.772-2.636l-12.77 12.772a57.34 57.34 0 0 1 2.796 2.612" fill="#000"/><path d="M172.333.397c12.725 0 23.039 10.316 23.039 23.042 0 12.727-10.314 23.045-23.039 23.045-12.724 0-23.04-10.318-23.04-23.045 0-12.726 10.316-23.042 23.04-23.042" fill="#000"/></g></svg>