<?xml version="1.0" encoding="UTF-8"?>
<svg width="1201px" height="171px" viewBox="0 0 1201 171" version="1.1" xmlns="http://www.w3.org/2000/svg" xmlns:xlink="http://www.w3.org/1999/xlink">
    <!-- Generator: Sketch 46.2 (44496) - http://www.bohemiancoding.com/sketch -->
    <title>Page 1</title>
    <desc>Created with Sketch.</desc>
    <defs></defs>
    <g id="Icons-/-logos-/-UI-Elements" stroke="none" stroke-width="1" fill="none" fill-rule="evenodd">
        <g id="logo/horizontal" transform="translate(-1.000000, 0.000000)" fill="#000000">
            <g id="Page-1" transform="translate(1.000000, 0.000000)">
                <g id="Group" transform="translate(0.000000, 0.389597)">
                    <path d="M91.8713329,137.14067 C117.118358,133.565337 136.53725,111.827749 136.53725,85.5399873 C136.53725,69.5718127 129.369221,55.2787175 118.080123,45.719781 L91.8713329,71.9883206 L91.8713329,137.14067 Z" id="Fill-23"></path>
                    <path d="M77.18893,137.14067 L77.18893,71.9883206 L50.9801394,45.719781 C39.6937819,55.2787175 32.523013,69.5718127 32.523013,85.5399873 C32.523013,111.827749 51.9446448,133.565337 77.18893,137.14067" id="Fill-24"></path>
                    <path d="M129.726526,40.2466651 C141.799284,52.3429349 148.4467,68.4319349 148.4467,85.5424587 C148.4467,102.650237 141.799284,118.73649 129.726526,130.83276 C117.653768,142.934522 101.602425,149.593649 84.5317755,149.593649 C67.4583856,149.593649 51.4070426,142.934522 39.3342845,130.83276 C27.2615264,118.73649 20.6141112,102.650237 20.6141112,85.5424587 C20.6141112,68.4319349 27.2615264,52.3429349 39.3342845,40.2466651 C40.3700318,39.2086651 41.4386599,38.2118556 42.5319487,37.2562365 L27.930104,22.6198873 C26.8505155,23.5974746 25.7928477,24.6025222 24.7598404,25.6405222 C16.999956,33.4172841 10.9060354,42.4736968 6.64796318,52.5598714 C2.23644693,63.0140143 0.00054801444,74.1079825 0.00054801444,85.5424587 C0.00054801444,96.9741889 2.23644693,108.065411 6.64796318,118.519554 C10.9060354,128.605729 16.999956,137.664887 24.7598404,145.441649 C32.5197249,153.218411 41.5592231,159.32284 51.6262484,163.592919 C62.0522231,168.011284 73.1248549,170.254792 84.5317755,170.254792 C95.938696,170.254792 107.008588,168.011284 117.437303,163.592919 C127.504328,159.32284 136.543826,153.218411 144.30371,145.441649 C152.060855,137.664887 158.154775,128.605729 162.412848,118.519554 C166.824364,108.065411 169.060263,96.9741889 169.060263,85.5424587 C169.060263,74.1079825 166.824364,63.0140143 162.412848,52.5598714 C158.154775,42.4736968 152.060855,33.4172841 144.30371,25.6405222 C143.267963,24.6025222 142.210295,23.5974746 141.133447,22.6198873 L126.528862,37.2562365 C127.622151,38.2118556 128.690779,39.2086651 129.726526,40.2466651" id="Fill-25"></path>
                    <path d="M84.5301314,0.359455556 C99.0799148,0.359455556 110.875926,12.1811222 110.875926,26.7598048 C110.875926,41.3439794 99.0799148,53.1629 84.5301314,53.1629 C69.980348,53.1629 58.1843372,41.3439794 58.1843372,26.7598048 C58.1843372,12.1811222 69.980348,0.359455556 84.5301314,0.359455556" id="Fill-26"></path>
                </g>
                <g id="Group-2" transform="translate(237.000000, 33.000000)">
                    <polygon id="Fill-1" points="50.9276723 66.8934059 71.3637519 0.501577087 98.2273081 0.501577087 118.498581 66.8934059 141.406766 0.501577087 169.259165 0.501577087 129.046234 115.952291 109.928612 115.952291 84.7131264 35.6818375 59.6624483 115.952291 40.5448255 115.952291 0.331894747 0.501577087 28.1842935 0.501577087"></polygon>
                    <polygon id="Fill-2" points="182.940979 115.949931 208.650886 115.949931 208.650886 0.499217579 182.940979 0.499217579"></polygon>
                    <path d="M236.995351,0.495442366 L262.705258,0.495442366 L262.705258,47.8979528 L306.21433,0.495442366 L338.026808,0.495442366 L292.205728,51.5315948 C296.161098,57.0386858 303.469115,67.3072635 314.125071,82.3373278 C324.781027,97.3673921 332.752981,108.570335 338.026808,115.946156 L308.027209,115.946156 L274.241754,70.3651855 L262.705258,83.2433788 L262.705258,115.946156 L236.995351,115.946156 L236.995351,0.495442366 Z" id="Fill-3"></path>
                    <polygon id="Fill-5" points="354.010742 115.949931 379.720648 115.949931 379.720648 0.499217579 354.010742 0.499217579"></polygon>
                    <polygon id="Fill-7" points="511.235767 43.2752053 480.087226 106.368442 464.760167 106.368442 433.776433 43.2752053 433.776433 115.948044 408.066527 115.948044 408.066527 0.497329973 442.840823 0.497329973 472.5061 63.920898 502.336184 0.497329973 536.945673 0.497329973 536.945673 115.948044 511.235767 115.948044"></polygon>
                    <polygon id="Fill-8" points="648.358094 0.495442366 648.358094 23.4534527 591.005225 23.4534527 591.005225 47.2372907 642.589845 47.2372907 642.589845 69.2090268 591.005225 69.2090268 591.005225 93.1533113 650.170972 93.1533113 650.170972 115.946156 565.295319 115.946156 565.295319 0.495442366"></polygon>
                    <path d="M742.216204,84.2390911 C748.53067,78.2884125 751.694966,69.6431762 751.694966,58.308101 C751.694966,46.9683068 748.53067,38.2381282 742.216204,32.1270031 C735.897029,26.0158781 726.206372,22.9626751 713.125398,22.9626751 L698.787181,22.9626751 L698.787181,93.1580303 L715.103083,93.1580303 C726.860892,93.1580303 735.897029,90.1850506 742.216204,84.2390911 M761.088971,15.6104489 C772.074541,25.685547 777.56968,39.701023 777.56968,57.6427198 C777.56968,75.5985737 772.211095,89.7980913 761.498634,100.260149 C750.786173,110.717487 734.446727,115.950875 712.466169,115.950875 L673.077274,115.950875 L673.077274,0.500161382 L713.784626,0.500161382 C734.329008,0.500161382 750.098692,5.53063188 761.088971,15.6104489" id="Fill-9"></path>
                    <polygon id="Fill-10" points="799.813929 115.949931 825.523835 115.949931 825.523835 0.499217579 799.813929 0.499217579"></polygon>
                    <path d="M901.178767,34.8508189 L886.666325,68.3794238 L915.521693,68.3794238 L901.178767,34.8508189 Z M935.953064,115.951819 L925.231185,91.0071031 L876.947415,91.0071031 L866.230246,115.951819 L838.876977,115.951819 L888.653428,0.49638617 L913.53459,0.49638617 L963.296915,115.951819 L935.953064,115.951819 Z" id="Fill-11"></path>
                </g>
            </g>
        </g>
    </g>
</svg>