<?xml version="1.0" encoding="UTF-8"?>
<svg width="345px" height="213px" viewBox="0 0 345 213" version="1.1" xmlns="http://www.w3.org/2000/svg" xmlns:xlink="http://www.w3.org/1999/xlink">
    <!-- Generator: Sketch 46.2 (44496) - http://www.bohemiancoding.com/sketch -->
    <title>Page 1</title>
    <desc>Created with Sketch.</desc>
    <defs>
        <polygon id="path-1" points="0.0263541667 0.675016981 0.0263541667 41.9284509 60.4823333 41.9284509 60.4823333 0.675016981 0.0263541667 0.675016981"></polygon>
    </defs>
    <g id="Icons-/-logos-/-UI-Elements" stroke="none" stroke-width="1" fill="none" fill-rule="evenodd">
        <g id="logo/vertical">
            <g id="Group-2">
                <g id="Page-1">
                    <polygon id="Fill-1" fill="#000000" points="50.5123125 171.085425 42.3089792 194.812858 35.052 171.085425 25.4303333 171.085425 18.1134583 194.812858 9.97241667 171.085425 0.0225208333 171.085425 0.0225208333 171.159708 14.3975208 212.341255 21.2424167 212.341255 30.2100208 183.656028 39.2423125 212.341255 46.0824167 212.341255 60.4837708 171.085425"></polygon>
                    <polygon id="Fill-2" fill="#000000" points="65.3798958 212.340057 74.5846875 212.340057 74.5846875 171.086623 65.3798958 171.086623"></polygon>
                    <g id="Group-8" transform="translate(0.000000, 170.410887)">
                        <g id="Group-7">
                            <mask id="mask-2" fill="white">
                                <use xlink:href="#path-1"></use>
                            </mask>
                            <g id="Clip-6"></g>
                            <polygon id="Fill-5" fill="#000000" mask="url(#mask-2)" points="18.1144167 24.4000547 25.4312917 0.675016981 35.0505625 0.675016981 42.3075417 24.4000547 50.510875 0.675016981 60.4823333 0.675016981 46.083375 41.9284509 39.2384792 41.9284509 30.2109792 13.2456208 21.2409792 41.9284509 14.3960833 41.9284509 -0.000479166667 0.675016981 9.97097917 0.675016981"></polygon>
                        </g>
                    </g>
                    <polygon id="Fill-9" fill="#000000" points="65.3798958 212.340057 74.5846875 212.340057 74.5846875 171.086623 65.3798958 171.086623"></polygon>
                    <g id="Group-38" transform="translate(84.000000, 0.278811)">
                        <path d="M0.73559375,170.806374 L9.94038542,170.806374 L9.94038542,187.745298 L25.5204896,170.806374 L36.9078854,170.806374 L20.5036146,189.044053 C21.9195521,191.011355 24.5358021,194.679977 28.3523646,200.049921 C32.1665312,205.419864 35.0199687,209.423958 36.9078854,212.059808 L26.1673646,212.059808 L14.0708021,195.77026 L9.94038542,200.375808 L9.94038542,212.059808 L0.73559375,212.059808 L0.73559375,170.806374 Z" id="Fill-10" fill="#000000"></path>
                        <polygon id="Fill-12" fill="#000000" points="42.629375 212.061245 51.8341667 212.061245 51.8341667 170.807811 42.629375 170.807811"></polygon>
                        <polygon id="Fill-14" fill="#000000" points="98.9249896 186.09286 87.7723854 208.638955 82.2835313 208.638955 71.1908229 186.09286 71.1908229 212.060766 61.9860313 212.060766 61.9860313 170.807332 74.4371771 170.807332 85.0579063 193.470842 95.7385313 170.807332 108.129781 170.807332 108.129781 212.060766 98.9249896 212.060766"></polygon>
                        <polygon id="Fill-15" fill="#000000" points="148.019688 170.806374 148.019688 179.011053 127.485 179.011053 127.485 187.508072 145.954479 187.508072 145.954479 195.358109 127.485 195.358109 127.485 203.915034 148.668958 203.915034 148.668958 212.059808 118.277813 212.059808 118.277813 170.806374"></polygon>
                        <path d="M181.625802,200.728772 C183.887469,198.603319 185.018302,195.516979 185.018302,191.462564 C185.018302,187.410545 183.887469,184.293055 181.625802,182.107696 C179.36174,179.924734 175.890177,178.832055 171.211115,178.832055 L166.076844,178.832055 L166.076844,203.915753 L171.917885,203.915753 C176.127365,203.915753 179.36174,202.854225 181.625802,200.728772 M188.382052,176.205791 C192.31601,179.807319 194.28299,184.815432 194.28299,191.227734 C194.28299,197.640036 192.366323,202.715243 188.530594,206.453357 C184.694865,210.19147 178.841844,212.060526 170.973927,212.060526 L156.872052,212.060526 L156.872052,170.807092 L171.445906,170.807092 C178.80351,170.807092 184.448094,172.606658 188.382052,176.205791" id="Fill-16" fill="#000000"></path>
                        <polygon id="Fill-17" fill="#000000" points="202.246979 212.061245 211.451771 212.061245 211.451771 170.807811 202.246979 170.807811"></polygon>
                        <path d="M238.538344,183.082242 L233.346573,195.063374 L243.672615,195.063374 L238.538344,183.082242 Z M250.98949,212.059808 L247.15376,203.148242 L229.863031,203.148242 L226.027302,212.059808 L216.233135,212.059808 L234.053344,170.806374 L242.963448,170.806374 L260.783656,212.059808 L250.98949,212.059808 Z" id="Fill-18" fill="#000000"></path>
                        <path d="M94.7533646,119.498134 C116.830969,116.378247 133.815031,97.4049264 133.815031,74.4634547 C133.815031,60.5246057 127.545135,48.0522472 117.674302,39.7085868 L94.7533646,62.6332849 L94.7533646,119.498134 Z" id="Fill-30" fill="#FEFEFE"></path>
                        <path d="M81.9131354,119.498134 L81.9131354,62.6332849 L58.9921979,39.7085868 C49.1213646,48.0522472 42.8514687,60.5246057 42.8514687,74.4634547 C42.8514687,97.4049264 59.8355312,116.378247 81.9131354,119.498134" id="Fill-31" fill="#FEFEFE"></path>
                        <path d="M127.85875,34.9317094 C138.417187,45.4918792 144.229479,59.5313698 144.229479,74.4646528 C144.229479,89.3979358 138.417187,103.43503 127.85875,113.9952 C117.300312,124.55537 103.263125,130.371011 88.3346875,130.371011 C73.4038542,130.371011 59.3642708,124.55537 48.8082292,113.9952 C38.2497917,103.43503 32.4351042,89.3955396 32.4351042,74.4646528 C32.4351042,59.5313698 38.2497917,45.4918792 48.8082292,34.9317094 C49.7138542,34.0259358 50.6482292,33.1561057 51.6041667,32.3198226 L38.834375,19.5479358 C37.8904167,20.4009925 36.965625,21.2780113 36.0623958,22.1837849 C29.275,28.9698981 23.9466667,36.8774453 20.2235417,45.6811811 C16.36625,54.8036151 14.4088542,64.486766 14.4088542,74.4646528 C14.4088542,84.4401434 16.36625,94.1232943 20.2235417,103.245728 C23.9466667,112.05186 29.275,119.957011 36.0623958,126.743125 C42.8473958,133.531634 50.75125,138.860842 59.5559375,142.584577 C68.6744792,146.442502 78.3584375,148.400219 88.3346875,148.400219 C98.3085417,148.400219 107.990104,146.442502 117.111042,142.584577 C125.915729,138.860842 133.819583,133.531634 140.604583,126.743125 C147.391979,119.957011 152.720312,112.05186 156.443437,103.245728 C160.300729,94.1232943 162.258125,84.4401434 162.258125,74.4646528 C162.258125,64.486766 160.300729,54.8036151 156.443437,45.6811811 C152.720312,36.8774453 147.391979,28.9698981 140.604583,22.1837849 C139.701354,21.2780113 138.776562,20.4009925 137.832604,19.5479358 L125.062812,32.3198226 C126.01875,33.1561057 126.953125,34.0259358 127.85875,34.9317094" id="Fill-32" fill="#FEFEFE"></path>
                        <path d="M88.33325,0.118373585 C101.057521,0.118373585 111.371583,10.4341283 111.371583,23.1604868 C111.371583,35.8868453 101.057521,46.2049962 88.33325,46.2049962 C75.6089792,46.2049962 65.2925208,35.8868453 65.2925208,23.1604868 C65.2925208,10.4341283 75.6089792,0.118373585 88.33325,0.118373585" id="Fill-33" fill="#FEFEFE"></path>
                        <path d="M94.7533646,119.498134 C116.830969,116.378247 133.815031,97.4049264 133.815031,74.4634547 C133.815031,60.5246057 127.545135,48.0522472 117.674302,39.7085868 L94.7533646,62.6332849 L94.7533646,119.498134 Z" id="Fill-34" fill="#000000"></path>
                        <path d="M81.9131354,119.498134 L81.9131354,62.6332849 L58.9921979,39.7085868 C49.1213646,48.0522472 42.8514687,60.5246057 42.8514687,74.4634547 C42.8514687,97.4049264 59.8355312,116.378247 81.9131354,119.498134" id="Fill-35" fill="#000000"></path>
                        <path d="M127.85875,34.9317094 C138.417187,45.4918792 144.229479,59.5313698 144.229479,74.4646528 C144.229479,89.3979358 138.417187,103.43503 127.85875,113.9952 C117.300312,124.55537 103.263125,130.371011 88.3346875,130.371011 C73.4038542,130.371011 59.3642708,124.55537 48.8082292,113.9952 C38.2497917,103.43503 32.4351042,89.3955396 32.4351042,74.4646528 C32.4351042,59.5313698 38.2497917,45.4918792 48.8082292,34.9317094 C49.7138542,34.0259358 50.6482292,33.1561057 51.6041667,32.3198226 L38.834375,19.5479358 C37.8904167,20.4009925 36.965625,21.2780113 36.0623958,22.1837849 C29.275,28.9698981 23.9466667,36.8774453 20.2235417,45.6811811 C16.36625,54.8036151 14.4088542,64.486766 14.4088542,74.4646528 C14.4088542,84.4401434 16.36625,94.1232943 20.2235417,103.245728 C23.9466667,112.05186 29.275,119.957011 36.0623958,126.743125 C42.8473958,133.531634 50.75125,138.860842 59.5559375,142.584577 C68.6744792,146.442502 78.3584375,148.400219 88.3346875,148.400219 C98.3085417,148.400219 107.990104,146.442502 117.111042,142.584577 C125.915729,138.860842 133.819583,133.531634 140.604583,126.743125 C147.391979,119.957011 152.720312,112.05186 156.443437,103.245728 C160.300729,94.1232943 162.258125,84.4401434 162.258125,74.4646528 C162.258125,64.486766 160.300729,54.8036151 156.443437,45.6811811 C152.720312,36.8774453 147.391979,28.9698981 140.604583,22.1837849 C139.701354,21.2780113 138.776562,20.4009925 137.832604,19.5479358 L125.062812,32.3198226 C126.01875,33.1561057 126.953125,34.0259358 127.85875,34.9317094" id="Fill-36" fill="#000000"></path>
                        <path d="M88.33325,0.118373585 C101.057521,0.118373585 111.371583,10.4341283 111.371583,23.1604868 C111.371583,35.8868453 101.057521,46.2049962 88.33325,46.2049962 C75.6089792,46.2049962 65.2925208,35.8868453 65.2925208,23.1604868 C65.2925208,10.4341283 75.6089792,0.118373585 88.33325,0.118373585" id="Fill-37" fill="#000000"></path>
                    </g>
                </g>
            </g>
        </g>
    </g>
</svg>