<svg width="1201" height="171" viewBox="0 0 1201 171" xmlns="http://www.w3.org/2000/svg"><g fill-rule="evenodd"><path d="M91.871 137.53c25.247-3.575 44.666-25.313 44.666-51.6 0-15.969-7.168-30.262-18.457-39.82L91.871 72.377v65.152zm-14.682 0V72.378L50.98 46.109c-11.286 9.56-18.457 23.852-18.457 39.82 0 26.288 19.422 48.026 44.666 51.601"/><path d="M129.727 40.636c12.072 12.097 18.72 28.186 18.72 45.296 0 17.108-6.648 33.194-18.72 45.29-12.073 12.102-28.125 18.761-45.195 18.761-17.074 0-33.125-6.659-45.198-18.76-12.072-12.097-18.72-28.183-18.72-45.29 0-17.111 6.648-33.2 18.72-45.297a64.25 64.25 0 0 1 3.198-2.99L27.93 23.009a84.258 84.258 0 0 0-3.17 3.021C17 33.807 10.906 42.863 6.648 52.95 2.236 63.403.001 74.497.001 85.931c0 11.432 2.235 22.523 6.647 32.977A84.453 84.453 0 0 0 24.76 145.83a84.275 84.275 0 0 0 26.866 18.152c10.426 4.418 21.499 6.661 32.906 6.661s22.477-2.243 32.905-6.661a84.275 84.275 0 0 0 26.867-18.152 84.49 84.49 0 0 0 18.109-26.922c4.411-10.454 6.647-21.545 6.647-32.977 0-11.434-2.236-22.528-6.647-32.983-4.258-10.086-10.352-19.142-18.11-26.919a88.675 88.675 0 0 0-3.17-3.02L126.53 37.645a64.25 64.25 0 0 1 3.198 2.99"/><path d="M84.53.75c14.55 0 26.346 11.82 26.346 26.4 0 14.584-11.796 26.402-26.346 26.402S58.184 41.734 58.184 27.15C58.184 12.571 69.98.75 84.53.75m203.398 99.143l20.436-66.391h26.863L355.5 99.893l22.908-66.391h27.852l-40.213 115.45H346.93l-25.216-80.27-25.05 80.27h-19.118l-40.213-115.45h27.852zm132.013 49.057h25.71V33.5h-25.71zm54.054-115.455h25.71v47.403l43.51-47.403h31.812l-45.821 51.037c3.955 5.507 11.263 15.775 21.92 30.805a11007.486 11007.486 0 0 0 23.9 33.61h-29.999l-33.785-45.582-11.537 12.878v32.703h-25.71V33.496zM591.01 148.95h25.71V33.5h-25.71zm157.226-72.675l-31.149 63.093H701.76l-30.984-63.093v72.673h-25.71V33.498h34.775l29.665 63.423 29.83-63.424h34.61v115.451h-25.71zm137.122-42.78v22.958h-57.353v23.784h51.585v21.972h-51.585v23.944h59.166v22.793h-84.876V33.496zm93.858 83.745c6.315-5.952 9.479-14.597 9.479-25.932 0-11.34-3.164-20.07-9.479-26.181-6.319-6.111-16.01-9.164-29.09-9.164h-14.339v70.195h16.316c11.758 0 20.794-2.973 27.113-8.919M998.09 48.61c10.986 10.076 16.48 24.091 16.48 42.033 0 17.956-5.358 32.155-16.07 42.617-10.713 10.457-27.052 15.69-49.033 15.69h-39.389V33.5h40.708c20.544 0 36.314 5.03 47.304 15.11m38.724 100.34h25.71V33.5h-25.71zm101.365-81.1l-14.513 33.53h28.856l-14.343-33.53zm34.774 81.102l-10.722-24.945h-48.284l-10.717 24.945h-27.353l49.776-115.456h24.882l49.762 115.456h-27.344z"/></g></svg>