<?xml version="1.0" encoding="UTF-8"?><svg xmlns="http://www.w3.org/2000/svg" xmlns:xlink="http://www.w3.org/1999/xlink" fill-opacity="1" color-rendering="auto" color-interpolation="auto" text-rendering="auto" stroke="black" stroke-linecap="square" width="666" stroke-miterlimit="10" shape-rendering="auto" stroke-opacity="1" fill="black" stroke-dasharray="none" font-weight="normal" stroke-width="1" height="319" font-family="'Dialog'" font-style="normal" stroke-linejoin="miter" font-size="12px" stroke-dashoffset="0" image-rendering="auto">
  <!--Generated by ySVG 2.5-->
  <defs id="genericDefs"/>
  <g>
    <defs id="defs1">
      <clipPath clipPathUnits="userSpaceOnUse" id="clipPath1">
        <path d="M0 0 L666 0 L666 319 L0 319 L0 0 Z"/>
      </clipPath>
      <clipPath clipPathUnits="userSpaceOnUse" id="clipPath2">
        <path d="M60 -4 L726 -4 L726 315 L60 315 L60 -4 Z"/>
      </clipPath>
    </defs>
    <g fill="white" text-rendering="geometricPrecision" shape-rendering="geometricPrecision" transform="translate(-60,4)" stroke="white">
      <rect x="60" width="666" height="319" y="-4" clip-path="url(#clipPath2)" stroke="none"/>
    </g>
    <g fill="rgb(255,204,0)" text-rendering="geometricPrecision" shape-rendering="geometricPrecision" transform="matrix(1,0,0,1,-60,4)" stroke="rgb(255,204,0)">
      <rect x="96" width="120" height="50" y="128" clip-path="url(#clipPath2)" stroke="none"/>
    </g>
    <g text-rendering="geometricPrecision" stroke-miterlimit="1.45" shape-rendering="geometricPrecision" font-family="sans-serif" transform="matrix(1,0,0,1,-60,4)" stroke-linecap="butt">
      <text x="141.041" xml:space="preserve" y="157.5352" clip-path="url(#clipPath2)" stroke="none">Store</text>
      <rect fill="none" x="96" width="120" height="50" y="128" clip-path="url(#clipPath2)"/>
    </g>
    <g fill="rgb(255,204,0)" text-rendering="geometricPrecision" shape-rendering="geometricPrecision" transform="matrix(1,0,0,1,-60,4)" stroke="rgb(255,204,0)">
      <rect x="527" width="120" height="50" y="11" clip-path="url(#clipPath2)" stroke="none"/>
    </g>
    <g text-rendering="geometricPrecision" stroke-miterlimit="1.45" shape-rendering="geometricPrecision" font-family="sans-serif" transform="matrix(1,0,0,1,-60,4)" stroke-linecap="butt">
      <text x="548.7236" xml:space="preserve" y="40.5352" clip-path="url(#clipPath2)" stroke="none">View Handler</text>
      <rect fill="none" x="527" width="120" height="50" y="11" clip-path="url(#clipPath2)"/>
    </g>
    <g fill="rgb(255,204,0)" text-rendering="geometricPrecision" shape-rendering="geometricPrecision" transform="matrix(1,0,0,1,-60,4)" stroke="rgb(255,204,0)">
      <rect x="527" width="120" height="50" y="128" clip-path="url(#clipPath2)" stroke="none"/>
    </g>
    <g text-rendering="geometricPrecision" stroke-miterlimit="1.45" shape-rendering="geometricPrecision" font-family="sans-serif" transform="matrix(1,0,0,1,-60,4)" stroke-linecap="butt">
      <text x="572.6768" xml:space="preserve" y="157.5352" clip-path="url(#clipPath2)" stroke="none">DOM</text>
      <rect fill="none" x="527" width="120" height="50" y="128" clip-path="url(#clipPath2)"/>
    </g>
    <g fill="rgb(255,204,0)" text-rendering="geometricPrecision" shape-rendering="geometricPrecision" transform="matrix(1,0,0,1,-60,4)" stroke="rgb(255,204,0)">
      <rect x="96" width="120" height="50" y="250" clip-path="url(#clipPath2)" stroke="none"/>
    </g>
    <g text-rendering="geometricPrecision" stroke-miterlimit="1.45" shape-rendering="geometricPrecision" font-family="sans-serif" transform="matrix(1,0,0,1,-60,4)" stroke-linecap="butt">
      <text x="129.8203" xml:space="preserve" y="279.5352" clip-path="url(#clipPath2)" stroke="none">Validator</text>
      <rect fill="none" x="96" width="120" height="50" y="250" clip-path="url(#clipPath2)"/>
    </g>
    <g fill="rgb(255,204,0)" text-rendering="geometricPrecision" shape-rendering="geometricPrecision" transform="matrix(1,0,0,1,-60,4)" stroke="rgb(255,204,0)">
      <rect x="311.5" width="120" height="50" y="128" clip-path="url(#clipPath2)" stroke="none"/>
    </g>
    <g text-rendering="geometricPrecision" stroke-miterlimit="1.45" shape-rendering="geometricPrecision" font-family="sans-serif" transform="matrix(1,0,0,1,-60,4)" stroke-linecap="butt">
      <text x="329.3535" xml:space="preserve" y="157.5352" clip-path="url(#clipPath2)" stroke="none">Action Creator</text>
      <rect fill="none" x="311.5" width="120" height="50" y="128" clip-path="url(#clipPath2)"/>
      <path fill="none" d="M156 128 L156 36 L519 36" clip-path="url(#clipPath2)"/>
      <path d="M527 36 L515 31 L518 36 L515 41 Z" clip-path="url(#clipPath2)" stroke="none"/>
      <text x="165.3896" xml:space="preserve" y="79.502" clip-path="url(#clipPath2)" stroke="none">Update</text>
      <path fill="none" d="M587 61 L587 120" clip-path="url(#clipPath2)"/>
      <path d="M587 128 L592 116 L587 119 L582 116 Z" clip-path="url(#clipPath2)" stroke="none"/>
      <text font-style="italic" x="599.4697" xml:space="preserve" y="99.0352" clip-path="url(#clipPath2)" stroke="none">DOM manipulation</text>
      <path fill="none" d="M186 177.9897 L186 242.0369" clip-path="url(#clipPath2)"/>
      <path d="M186 250.0369 L191 238.0369 L186 241.0369 L181 238.0369 Z" clip-path="url(#clipPath2)" stroke="none"/>
      <text x="195.3896" xml:space="preserve" y="218.5352" clip-path="url(#clipPath2)" stroke="none">Update</text>
      <path fill="none" d="M126 250.0103 L126 185.9631" clip-path="url(#clipPath2)"/>
      <path d="M126 177.9631 L121 189.9631 L126 186.9631 L131 189.9631 Z" clip-path="url(#clipPath2)" stroke="none"/>
      <text x="77.3994" xml:space="preserve" y="218.5352" clip-path="url(#clipPath2)" stroke="none">Action</text>
      <path fill="none" d="M527 153 L439.5 153" clip-path="url(#clipPath2)"/>
      <path d="M431.5 153 L443.5 158 L440.5 153 L443.5 148 Z" clip-path="url(#clipPath2)" stroke="none"/>
      <text font-style="italic" x="447.3604" xml:space="preserve" y="127.5352" clip-path="url(#clipPath2)" stroke="none">DOM Event</text>
      <path fill="none" d="M311.5 153 L224 153" clip-path="url(#clipPath2)"/>
      <path d="M216 153 L228 158 L225 153 L228 148 Z" clip-path="url(#clipPath2)" stroke="none"/>
      <text x="245.1494" xml:space="preserve" y="127.5352" clip-path="url(#clipPath2)" stroke="none">Action</text>
    </g>
  </g>
</svg>
