<svg width="46" height="43" viewBox="0 0 46 43" fill="none" xmlns="http://www.w3.org/2000/svg">
<mask id="mask0" mask-type="alpha" maskUnits="userSpaceOnUse" x="18" y="0" width="19" height="19">
<path fill-rule="evenodd" clip-rule="evenodd" d="M18.0488 0.0174561H36.3435V18.3955H18.0488V0.0174561Z" fill="white"/>
</mask>
<g mask="url(#mask0)">
<path fill-rule="evenodd" clip-rule="evenodd" d="M23.3593 1.97215C22.8512 1.97215 22.4024 2.14706 22.1271 2.28753C21.0954 2.80812 20.2852 3.86996 20.1102 4.92904C19.8166 6.71116 20.583 8.76735 22.3897 11.0398C23.9592 13.0188 25.818 14.739 27.9225 16.1616C30.2457 13.7653 31.8166 10.7092 33.3381 7.74821C34.137 6.19746 34.8653 4.1454 33.8081 3.17309C33.1109 2.52992 31.866 2.68555 31.0502 3.15794C29.9944 3.76804 29.1956 4.89186 28.4927 5.88345C28.4376 5.96195 28.3727 6.02944 28.3007 6.0859C28.2965 6.55691 27.9422 6.9687 27.4496 7.04169C26.8992 7.11744 26.3925 6.75523 26.312 6.22363C25.9606 3.96499 25.3029 2.67729 24.2415 2.16909C23.9408 2.02586 23.6416 1.97215 23.3593 1.97215ZM28.0523 18.3955C27.8646 18.3955 27.6769 18.3445 27.5089 18.2399C24.9359 16.6175 22.6818 14.5971 20.806 12.2366C18.6494 9.51793 17.7503 6.95631 18.1356 4.61779C18.4108 2.95273 19.6162 1.35791 21.2069 0.553615C22.5252 -0.111581 23.9168 -0.159784 25.1208 0.417271C26.4941 1.07283 27.2676 2.30131 27.7249 3.58074C28.3487 2.7916 29.0798 2.02862 30.0325 1.47911C31.4666 0.650021 33.691 0.380086 35.1814 1.75317C36.7481 3.19512 36.7312 5.50609 35.1278 8.62412C33.4891 11.811 31.6317 15.4221 28.7439 18.1242C28.5534 18.3032 28.3035 18.3955 28.0523 18.3955Z" fill="#1A1919"/>
</g>
<path fill-rule="evenodd" clip-rule="evenodd" d="M27.75 33.1154C27.1622 33.1154 26.5116 33.0789 25.7932 33.0059C25.7096 32.9977 25.6273 32.9775 25.5476 32.9463L18.0325 29.922C17.5557 29.7299 17.3206 29.174 17.5048 28.6804C17.6903 28.188 18.2271 27.9432 18.7039 28.1339L26.0988 31.1109C29.7329 31.4626 30.1248 30.6592 30.1287 30.6497C30.2842 30.294 29.6454 29.1713 28.8211 28.3341C28.0583 27.9337 23.3504 25.5546 16.6217 24.1669C14.2391 23.6772 13.4487 24.0911 13.4409 24.0952C13.0333 24.4103 12.4808 24.3048 12.1751 23.8828C11.8681 23.4581 11.9805 22.8373 12.3893 22.5194C12.6702 22.3017 13.8315 21.6376 16.9823 22.2881C24.5953 23.8558 29.5919 26.5852 29.8009 26.7002C29.8727 26.7408 29.938 26.7895 29.9981 26.8463C30.4462 27.2818 32.6433 29.5446 31.8152 31.4396C31.3214 32.569 30.0125 33.1154 27.75 33.1154Z" fill="#1A1919"/>
<mask id="mask1" mask-type="alpha" maskUnits="userSpaceOnUse" x="15" y="20" width="31" height="21">
<path fill-rule="evenodd" clip-rule="evenodd" d="M15.6025 20.121H45.2865V40.6206H15.6025V20.121Z" fill="white"/>
</mask>
<g mask="url(#mask1)">
<path fill-rule="evenodd" clip-rule="evenodd" d="M28.8556 40.6206C27.6565 40.6206 26.3401 40.4034 24.7228 40.1109C20.9791 39.4322 16.3288 36.9831 16.1328 36.8795C15.6526 36.6254 15.4635 36.0191 15.7119 35.525C15.9576 35.0295 16.5495 34.8336 17.0284 35.0906C17.0739 35.1147 21.6125 37.5042 25.0622 38.1289C29.1509 38.87 30.5764 38.9992 33.2783 36.7617C35.9125 34.5795 41.9552 25.3353 43.2468 23.3405C43.106 22.9416 42.8314 22.4049 42.3954 22.2161C41.7951 21.9549 40.9437 22.385 40.331 22.7911C38.7248 23.8616 37.6968 25.3779 36.608 26.9823C35.3233 28.8748 33.9945 30.8313 31.6776 31.9401C31.1891 32.1715 30.6068 31.9557 30.3791 31.4517C30.15 30.9491 30.3625 30.35 30.8524 30.1157C32.6918 29.234 33.8164 27.58 35.0046 25.8294C36.154 24.137 37.3408 22.3865 39.2699 21.103C40.7395 20.1219 42.0518 19.8735 43.1709 20.369C44.8185 21.0973 45.2284 23.1006 45.2698 23.3264C45.3167 23.5819 45.2656 23.8474 45.1262 24.0646C44.8227 24.5374 37.6857 35.694 34.505 38.3291C32.4227 40.0541 30.793 40.6206 28.8556 40.6206Z" fill="#1A1919"/>
</g>
<path fill-rule="evenodd" clip-rule="evenodd" d="M2.33574 27.7896L8.82098 40.0505L16.6473 37.4819L10.4302 23.3463L2.33574 27.7896ZM8.32004 42.2019C7.95108 42.2019 7.59772 42.0056 7.42318 41.6743L0.109188 27.8455C-0.133477 27.386 0.0410714 26.8243 0.506533 26.568L10.416 21.1281C10.6672 20.9904 10.9624 20.9617 11.2377 21.0517C11.5102 21.1404 11.7301 21.3367 11.8422 21.5903L18.9206 37.685C19.0299 37.9318 19.0257 38.2127 18.9121 38.4567C18.7986 38.7008 18.5829 38.8889 18.3189 38.9762L8.64501 42.1501C8.53716 42.1856 8.42789 42.2019 8.32004 42.2019Z" fill="#1A1919"/>
</svg>

