<svg width="28" height="52" viewBox="0 0 28 52" fill="none" xmlns="http://www.w3.org/2000/svg">
<mask id="mask0" mask-type="alpha" maskUnits="userSpaceOnUse" x="0" y="1" width="28" height="51">
<path fill-rule="evenodd" clip-rule="evenodd" d="M0.000976562 1.00012H27.6965V51.6408H0.000976562V1.00012Z" fill="white"/>
</mask>
<g mask="url(#mask0)">
<path fill-rule="evenodd" clip-rule="evenodd" d="M25.606 44.2798C25.606 47.1858 23.241 49.5508 20.335 49.5508H7.36298C4.45598 49.5508 2.09098 47.1858 2.09098 44.2798V8.36282C2.09098 5.45582 4.45598 3.09082 7.36298 3.09082H20.335C23.241 3.09082 25.606 5.45582 25.606 8.36282V44.2798ZM20.335 0.999817H7.36298C3.30298 0.999817 0.000976562 4.30282 0.000976562 8.36282V44.2798C0.000976562 48.3398 3.30298 51.6408 7.36298 51.6408H20.335C24.394 51.6408 27.697 48.3398 27.697 44.2798V8.36282C27.697 4.30282 24.394 0.999817 20.335 0.999817Z" fill="#1A1919"/>
</g>
<path fill-rule="evenodd" clip-rule="evenodd" d="M21.8288 17.8594H19.2768C18.7968 17.8594 18.4088 18.2484 18.4088 18.7284C18.4088 19.1964 18.7808 19.5714 19.2438 19.5894L16.0988 27.1984L14.4098 23.5304L16.2718 19.5924L16.5438 19.5964H16.5558C17.0298 19.5964 17.4178 19.2154 17.4248 18.7404C17.4318 18.2604 17.0478 17.8664 16.5678 17.8594L14.7148 17.8334C14.2558 17.8504 13.8408 18.2104 13.8338 18.6894C13.8288 19.0624 14.0618 19.3784 14.3908 19.5054L13.4608 21.4714L12.5718 19.5414C12.9108 19.4264 13.1598 19.1174 13.1648 18.7404C13.1718 18.2604 12.7878 17.8664 12.3078 17.8594L10.4548 17.8334C10.0138 17.8504 9.58084 18.2104 9.57384 18.6894C9.56684 19.1694 9.95084 19.5634 10.4308 19.5704L10.6748 19.5734L12.4918 23.5204L10.8598 26.9714L8.18684 19.5694C8.59984 19.5034 8.92184 19.1604 8.92184 18.7284C8.92184 18.2484 8.53284 17.8594 8.05284 17.8594H5.50084C5.02084 17.8594 4.63184 18.2484 4.63184 18.7284C4.63184 19.2084 5.02084 19.5964 5.50084 19.5964H6.34984L9.93484 29.5264C10.0548 29.8564 10.3598 30.0824 10.7108 30.0984C10.7248 30.0994 10.7388 30.0994 10.7518 30.0994C11.0868 30.0994 11.3928 29.9074 11.5378 29.6024L13.4398 25.5804L15.3528 29.7324C15.4948 30.0414 15.8028 30.2374 16.1418 30.2374H16.1588C16.5038 30.2314 16.8128 30.0204 16.9448 29.7014L21.1208 19.5964H21.8288C22.3088 19.5964 22.6978 19.2084 22.6978 18.7284C22.6978 18.2484 22.3088 17.8594 21.8288 17.8594Z" fill="#1A1919"/>
<path fill-rule="evenodd" clip-rule="evenodd" d="M13.9314 45.0718C12.9894 45.0718 12.2224 44.3058 12.2224 43.3638C12.2224 42.4218 12.9894 41.6558 13.9314 41.6558C14.8734 41.6558 15.6394 42.4218 15.6394 43.3638C15.6394 44.3058 14.8734 45.0718 13.9314 45.0718ZM13.9314 39.9178C12.0314 39.9178 10.4854 41.4638 10.4854 43.3638C10.4854 45.2638 12.0314 46.8098 13.9314 46.8098C15.8314 46.8098 17.3774 45.2638 17.3774 43.3638C17.3774 41.4638 15.8314 39.9178 13.9314 39.9178Z" fill="#1A1919"/>
</svg>

