<svg width="37" height="43" viewBox="0 0 37 43" fill="none" xmlns="http://www.w3.org/2000/svg">
<mask id="mask0" mask-type="alpha" maskUnits="userSpaceOnUse" x="2" y="5" width="35" height="38">
<path fill-rule="evenodd" clip-rule="evenodd" d="M2.23926 5.88763H36.7962V42.6058H2.23926V5.88763Z" fill="white"/>
</mask>
<g mask="url(#mask0)">
<path fill-rule="evenodd" clip-rule="evenodd" d="M3.34286 42.6058C3.06724 42.6058 2.79161 42.5012 2.57724 42.2905C2.13828 41.8572 2.12516 41.1414 2.54807 40.6902L34.8968 6.23471C35.3197 5.78495 36.0197 5.77 36.4572 6.20333C36.8977 6.63666 36.9122 7.3524 36.4893 7.80216L4.13766 42.2591C3.92182 42.4892 3.63307 42.6058 3.34286 42.6058Z" fill="#1A1919"/>
</g>
<path fill-rule="evenodd" clip-rule="evenodd" d="M25.0852 39.5769C24.8858 39.5769 24.6835 39.5178 24.5027 39.3965C23.9962 39.0555 23.8485 38.3462 24.1698 37.8112L31.9678 24.9022L25.5329 24.7067C24.9346 24.6885 24.4611 24.161 24.4783 23.5275C24.4955 22.8954 25.0092 22.4407 25.5946 22.4135L33.9449 22.6651C34.3352 22.6772 34.6896 22.9106 34.8732 23.2759C35.0569 23.6411 35.0397 24.0807 34.8302 24.4293L26.0035 39.0464C25.7954 39.389 25.4439 39.5769 25.0852 39.5769Z" fill="#1A1919"/>
<path fill-rule="evenodd" clip-rule="evenodd" d="M9.93671 22.4135H9.92688L1.34652 22.327C0.919538 22.3226 0.537502 22.0531 0.374575 21.643C0.211648 21.2313 0.29873 20.7596 0.597897 20.4418C3.48002 17.3802 11.028 7.93623 8.0181 4.79557C7.03352 3.7687 6.07843 3.31752 5.1739 3.45375C3.64576 3.68374 2.36341 5.54704 1.99823 6.24432C1.71872 6.78339 1.07404 6.98114 0.557166 6.6911C0.041698 6.39959 -0.150725 5.73015 0.127375 5.19108C0.200411 5.04899 1.9575 1.70324 4.85928 1.25939C6.46187 1.02062 8.03355 1.67541 9.52097 3.22817C13.5899 7.46894 7.09813 16.2068 3.76936 20.1341L9.94654 20.1957C10.535 20.2015 11.0056 20.704 11 21.3148C10.9943 21.9242 10.5196 22.4135 9.93671 22.4135Z" fill="#1A1919"/>
<path fill-rule="evenodd" clip-rule="evenodd" d="M14.136 14.3365C13.7789 14.3365 13.4398 14.1712 13.2253 13.8888C12.9912 13.583 12.9357 13.1821 13.0767 12.8281L17.8162 0.90836C18.0427 0.339221 18.7014 0.0568463 19.2865 0.276308C19.8701 0.497234 20.1627 1.13806 19.9346 1.71013L15.8478 11.9897L23.7784 11.3943C24.386 11.3416 24.9486 11.8039 24.9966 12.414C25.0446 13.0241 24.5765 13.5567 23.9509 13.6035L14.223 14.3336C14.1945 14.3351 14.166 14.3365 14.136 14.3365Z" fill="#1A1919"/>
<path fill-rule="evenodd" clip-rule="evenodd" d="M21 19.3846C20.4478 19.3846 20 18.8712 20 18.238V8.41579C20 7.78268 20.4478 7.26923 21 7.26923C21.5522 7.26923 22 7.78268 22 8.41579V18.238C22 18.8712 21.5522 19.3846 21 19.3846Z" fill="#1A1919"/>
</svg>

