<svg width="43" height="41" viewBox="0 0 43 41" fill="none" xmlns="http://www.w3.org/2000/svg">
<mask id="mask0" mask-type="alpha" maskUnits="userSpaceOnUse" x="1" y="0" width="41" height="41">
<path fill-rule="evenodd" clip-rule="evenodd" d="M1 0.263306H41.7376V40.9589H1V0.263306Z" fill="white"/>
</mask>
<g mask="url(#mask0)">
<path fill-rule="evenodd" clip-rule="evenodd" d="M21.3682 2.33571C11.2807 2.33571 3.07636 10.5334 3.07636 20.6109C3.07636 30.6883 11.2807 38.8861 21.3682 38.8861C31.4557 38.8861 39.6615 30.6883 39.6615 20.6109C39.6615 10.5334 31.4557 2.33571 21.3682 2.33571ZM21.3682 40.9589C10.1371 40.9589 1 31.8323 1 20.6109C1 9.39096 10.1371 0.262878 21.3682 0.262878C32.6007 0.262878 41.7379 9.39096 41.7379 20.6109C41.7379 31.8323 32.6007 40.9589 21.3682 40.9589Z" fill="#1A1919"/>
</g>
<path fill-rule="evenodd" clip-rule="evenodd" d="M14.8965 5.93539C14.723 6.03955 14.5511 6.14519 14.3805 6.25083C13.7261 6.65406 13.4331 7.08705 13.4273 7.22096C13.4579 7.22394 13.6736 7.25667 13.8471 7.16442C14.2246 6.96801 14.5467 6.46807 14.8309 6.02764C14.8513 5.99491 14.8717 5.96515 14.8965 5.93539ZM18.9077 40C18.7153 40 18.5243 39.9435 18.3582 39.8378C16.4386 38.6073 16.2039 36.3531 15.9984 34.3667C15.8833 33.2493 15.7739 32.1928 15.4125 31.3269C14.8979 30.0904 13.8033 29.1515 12.6431 28.1561C12.3953 27.9433 12.149 27.7306 11.907 27.5163C9.78485 25.6251 8.78789 23.6968 8.93947 21.7833C9.09251 19.8728 10.4772 18.0873 12.4682 17.2362C14.2683 16.4684 16.2243 16.516 17.7256 16.644C19.1088 16.7392 20.1422 15.0058 20.7369 13.1057C18.7882 12.3216 16.443 12.881 14.7347 13.5432C13.9243 13.8571 13.1299 14.2231 12.3356 14.5877C10.7221 15.3302 9.05316 16.0994 7.22976 16.4521C6.93096 16.5101 6.62051 16.4297 6.38438 16.2333C6.14826 16.0369 6.00979 15.7438 6.00396 15.4313C5.98938 14.3065 5.96461 12.6058 6.94991 11.3291C8.00955 9.94982 9.7659 9.63587 10.9961 9.51832L11.5427 9.47071C12.079 9.42756 12.6023 9.38441 13.0804 9.28621C12.4842 9.16717 11.9362 8.82495 11.6112 8.21341C10.9494 6.97099 11.6155 5.49199 13.3107 4.44747C14.6604 3.61274 16.0596 2.82711 17.472 2.10993C17.985 1.85103 18.6016 2.06529 18.8567 2.58607C19.1103 3.10684 18.9018 3.73921 18.3902 3.9996C17.4224 4.49062 16.4604 5.01585 15.5174 5.56639C15.5728 5.55597 15.634 5.55002 15.6938 5.55151C16.0188 5.55151 16.3249 5.70774 16.5202 5.97408C16.9793 6.59901 17.1411 7.39356 16.9779 8.21639C16.7767 9.22669 16.1019 10.1819 15.2157 10.7102C14.0963 11.3782 12.8268 11.4824 11.7074 11.5746L11.187 11.6178C9.83732 11.7472 9.00652 12.0686 8.57363 12.6311C8.28795 13.0016 8.15968 13.4911 8.10429 14.058C9.23244 13.7039 10.3358 13.195 11.4873 12.6653C12.3181 12.2829 13.1533 11.899 14.003 11.5717C16.3453 10.664 19.721 9.93792 22.4933 11.649C22.878 11.8856 23.0675 12.3498 22.964 12.7962C22.2863 15.6947 20.5095 19.0128 17.5536 18.745C16.2885 18.6408 14.6545 18.5887 13.2655 19.1824C12.2102 19.6333 11.101 20.6644 10.9975 21.9559C10.9028 23.1641 11.6651 24.5018 13.2655 25.9287C13.4972 26.134 13.7348 26.3364 13.9724 26.5417C15.2682 27.6517 16.6062 28.8004 17.3146 30.5026C17.7956 31.6587 17.9267 32.9219 18.0535 34.1435C18.176 35.3368 18.2882 36.4171 18.6963 37.1967L24.289 27.2232C25.111 25.759 25.78 24.4422 25.6547 23.1492C25.5935 22.5258 25.1737 21.8577 24.6344 21.5244C24.4012 21.3831 24.0543 21.2432 23.7001 21.389C23.2351 21.5809 22.7017 21.4039 22.4379 20.9709C22.1711 20.5364 22.2484 19.9725 22.6215 19.6288C25.7494 16.7437 31.1686 14.79 35.2439 15.0698C35.5762 15.0936 36.1301 15.1338 36.6067 15.5132C37.3078 16.0682 37.3618 16.9312 37.3953 17.446L37.455 18.4652C37.5891 20.8772 37.7932 24.5211 38.8368 26.1816C39.1443 26.6726 39.0044 27.3243 38.5249 27.6383C38.041 27.9508 37.404 27.8094 37.0965 27.3199C35.7614 25.1921 35.5486 21.3741 35.3926 18.5858L35.3328 17.5844C35.3285 17.4847 35.3168 17.3076 35.2949 17.1901C35.2279 17.1826 35.1477 17.1767 35.0982 17.1737C32.2997 16.9639 28.5917 18.0739 25.8398 19.8073C26.863 20.5022 27.5903 21.7134 27.7098 22.9424C27.911 25.0091 26.8543 26.8943 26.0832 28.2707L19.8041 39.4688C19.6641 39.7188 19.4309 39.8988 19.1584 39.9688C19.0753 39.9896 18.9922 40 18.9077 40Z" fill="#1A1919"/>
</svg>

