<svg width="48" height="40" viewBox="0 0 48 40" fill="none" xmlns="http://www.w3.org/2000/svg">
<path fill-rule="evenodd" clip-rule="evenodd" d="M5.35351 26.3994L7.97715 30.8601L31.3683 24.0597L24.235 9.93396L5.35351 26.3994ZM7.09883 33L3 26.0299L24.8189 7L34 25.1777L7.09883 33Z" fill="#1A1919"/>
<path fill-rule="evenodd" clip-rule="evenodd" d="M18.2456 37.0159C17.2088 37.0159 16.1768 36.7438 15.2712 36.2154C13.8712 35.3992 12.876 34.0326 12.5432 32.4646C12.4392 31.9771 12.756 31.5006 13.2536 31.3984C13.7432 31.2993 14.2344 31.6091 14.34 32.0966C14.5704 33.1849 15.2344 34.0971 16.2072 34.6632C17.1832 35.2309 18.3128 35.3662 19.3976 35.0454L22.636 34.0813C24.3624 33.5686 25.3672 31.7617 24.8792 30.0553L24.5 28.7438C24.3608 28.2641 24.6456 27.7656 25.1336 27.6303C25.6184 27.4904 26.1288 27.7734 26.2664 28.2515L26.644 29.5647C27.4056 32.2115 25.8456 35.0123 23.1672 35.8081L19.9288 36.7721C19.3784 36.9357 18.812 37.0159 18.2456 37.0159Z" fill="#1A1919"/>
<path fill-rule="evenodd" clip-rule="evenodd" d="M32.5966 16.6337C32.235 16.6337 31.8942 16.423 31.7486 16.0754C31.555 15.6147 31.7774 15.0878 32.2462 14.8975L46.4062 9.16366C46.8702 8.97336 47.4126 9.19196 47.6046 9.65275C47.7982 10.1135 47.5742 10.6404 47.1054 10.8307L32.947 16.5661C32.8318 16.6117 32.7134 16.6337 32.5966 16.6337Z" fill="#1A1919"/>
<path fill-rule="evenodd" clip-rule="evenodd" d="M30.5136 12.335C30.2464 12.335 29.9792 12.2202 29.7984 11.9985C29.48 11.6101 29.544 11.0423 29.9392 10.7294L38.152 4.23276C38.544 3.92137 39.1264 3.98113 39.4432 4.36958C39.76 4.75802 39.6976 5.32418 39.3024 5.63713L31.088 12.1353C30.92 12.269 30.7168 12.335 30.5136 12.335Z" fill="#1A1919"/>
<path fill-rule="evenodd" clip-rule="evenodd" d="M35.0346 21.7417C34.5962 21.7417 34.2074 21.4303 34.1322 20.99C34.0474 20.4993 34.3834 20.0338 34.8826 19.9505L45.7034 18.145C46.1978 18.057 46.6746 18.392 46.761 18.8826C46.8458 19.3749 46.5098 19.8404 46.009 19.9237L35.1898 21.7291C35.137 21.7386 35.0858 21.7417 35.0346 21.7417Z" fill="#1A1919"/>
<mask id="mask0" mask-type="alpha" maskUnits="userSpaceOnUse" x="0" y="0" width="43" height="40">
<path fill-rule="evenodd" clip-rule="evenodd" d="M0 0.27832H42.4176V40H0V0.27832Z" fill="white"/>
</mask>
<g mask="url(#mask0)">
<path fill-rule="evenodd" clip-rule="evenodd" d="M5.9776 2.24099C3.7824 2.24099 1.9968 3.99606 1.9968 6.15531V34.1217C1.9968 36.281 3.7824 38.0376 5.9776 38.0376H36.44C38.6352 38.0376 40.4208 36.281 40.4208 34.1217V6.15531C40.4208 3.99606 38.6352 2.24099 36.44 2.24099H5.9776ZM36.44 40.0003H5.9776C2.68 40.0003 0 37.363 0 34.1217V6.15531C0 2.91408 2.68 0.27832 5.9776 0.27832H36.44C39.7376 0.27832 42.4176 2.91408 42.4176 6.15531V34.1217C42.4176 37.363 39.7376 40.0003 36.44 40.0003Z" fill="#1A1919"/>
</g>
<path fill-rule="evenodd" clip-rule="evenodd" d="M1.4514 8.2161C0.960199 8.2161 0.561799 7.82608 0.558599 7.34328C0.556999 6.8589 0.953799 6.46417 1.4466 6.46259L40.8642 6.28174H40.869C41.3586 6.28174 41.757 6.67176 41.7602 7.15456C41.7618 7.63893 41.365 8.03367 40.8738 8.03524L1.4562 8.2161H1.4514Z" fill="#1A1919"/>
<path fill-rule="evenodd" clip-rule="evenodd" d="M7.61062 4.33201C7.61062 5.05072 7.01862 5.6326 6.28742 5.6326C5.55782 5.6326 4.96582 5.05072 4.96582 4.33201C4.96582 3.61331 5.55782 3.03143 6.28742 3.03143C7.01862 3.03143 7.61062 3.61331 7.61062 4.33201Z" fill="#1A1919"/>
<path fill-rule="evenodd" clip-rule="evenodd" d="M10.736 4.33201C10.736 5.05072 10.144 5.6326 9.41437 5.6326C8.68317 5.6326 8.09277 5.05072 8.09277 4.33201C8.09277 3.61331 8.68317 3.03143 9.41437 3.03143C10.144 3.03143 10.736 3.61331 10.736 4.33201Z" fill="#1A1919"/>
<path fill-rule="evenodd" clip-rule="evenodd" d="M14.1028 4.33201C14.1028 5.05072 13.5108 5.6326 12.7796 5.6326C12.05 5.6326 11.458 5.05072 11.458 4.33201C11.458 3.61331 12.05 3.03143 12.7796 3.03143C13.5108 3.03143 14.1028 3.61331 14.1028 4.33201Z" fill="#1A1919"/>
</svg>

